<svg id="Layer_1" enable-background="new 0 0 511.992 511.992" height="512" viewBox="0 0 511.992 511.992" width="512" xmlns="http://www.w3.org/2000/svg"><path d="m328.695 218.887c-6.245-6.245-16.38-6.248-22.628 0l-29.937 29.938c-18.296-7.687-48.832-38.156-56.568-56.568l29.938-29.938c6.248-6.248 6.248-16.379 0-22.627l-62.226-62.226c-6.243-6.244-16.38-6.248-22.627 0l-33.94 33.941c-16.831 16.83-18.89 44.844-5.798 78.881 37.719 98.07 179.074 200.389 232.072 147.393l33.941-33.941c6.248-6.248 6.248-16.379 0-22.627zm5.657 96.167c-7.029 7.027-24.183 6.476-44.767-1.442-53.186-20.455-114.294-81.469-134.811-134.811-7.918-20.585-8.47-37.738-1.442-44.767l22.627-22.627 39.598 39.598-22.626 22.627c-6.032 6.031-10.769 17.639.923 38.683 17.154 30.877 75.768 88.271 100.9 63.141l22.627-22.627 39.598 39.598z"/><path d="m383.996 0h-256c-48.523 0-88 39.477-88 88v256c0 48.523 39.477 88 88 88h70.941l43.339 72.231c6.19 10.317 21.212 10.379 27.439 0l43.34-72.231h70.941c48.523 0 88-39.477 88-88v-256c0-48.523-39.476-88-88-88zm56 344c0 30.879-25.122 56-56 56h-80c-5.62 0-10.828 2.949-13.72 7.769l-34.28 57.133-34.28-57.133c-2.892-4.819-8.1-7.769-13.72-7.769h-80c-30.878 0-56-25.121-56-56v-256c0-30.879 25.122-56 56-56h256c30.878 0 56 25.121 56 56z"/></svg>